<svg xmlns="http://www.w3.org/2000/svg" xmlns:xlink="http://www.w3.org/1999/xlink" width="500" zoomAndPan="magnify" viewBox="0 0 375 225" height="300" preserveAspectRatio="xMidYMid meet" version="1.0"><defs><g/><clipPath id="b9ae7ca39e"><path d="M 88.582031 29.085938 L 137.945312 29.085938 L 137.945312 81.222656 L 88.582031 81.222656 Z M 88.582031 29.085938 " clip-rule="nonzero"/></clipPath><clipPath id="944d0e545e"><path d="M 114.839844 29.105469 C 116.914062 29.230469 118.734375 30.378906 118.957031 31.78125 C 119.152344 33.371094 117.4375 34.664062 115.125 34.566406 C 112.777344 34.527344 110.910156 33.109375 110.953125 31.5 C 111.003906 30.082031 112.75 29.058594 114.839844 29.105469 M 121.953125 76.9375 C 123.640625 76.664062 124.675781 77.347656 124.320312 78.378906 C 123.96875 79.265625 122.457031 80.195312 120.96875 80.507812 C 119.398438 80.777344 118.238281 80.304688 118.421875 79.371094 C 118.59375 78.292969 120.183594 77.171875 121.953125 76.9375 Z M 128.546875 65.945312 C 128.855469 65.75 129.175781 65.578125 129.492188 65.449219 C 130.664062 64.410156 131.589844 62.921875 132.078125 61.28125 C 132.574219 59.46875 132.519531 57.597656 131.941406 56.050781 C 131.945312 56.070312 131.945312 56.070312 131.949219 56.070312 C 130.917969 54.660156 130.429688 52.621094 130.824219 50.625 C 131.34375 47.613281 133.585938 46.140625 135.695312 47.210938 C 137.480469 48.242188 138.578125 51.128906 138.308594 53.789062 C 138.046875 55.558594 137.21875 56.941406 136.128906 57.503906 C 136.132812 57.507812 136.132812 57.507812 136.140625 57.507812 C 135.195312 58.476562 134.378906 60.003906 133.90625 61.726562 C 133.628906 62.660156 133.480469 63.582031 133.453125 64.425781 C 133.339844 66.332031 133.933594 66.082031 134.117188 67.410156 C 134.238281 68.535156 133.816406 69.953125 132.914062 71.292969 C 131.640625 73.109375 129.582031 74.515625 127.804688 74.609375 C 123.929688 74.480469 126.007812 71.328125 124.085938 69.171875 C 123.609375 68.628906 122.996094 68.15625 122.277344 67.785156 C 121.417969 67.359375 120.472656 67.089844 119.484375 67.003906 C 116.023438 66.636719 113.542969 68.441406 112.582031 71.574219 C 112.320312 72.371094 112.253906 73.160156 112.339844 73.902344 C 112.394531 74.472656 113.050781 75.886719 113.050781 75.886719 C 114.265625 76.859375 114.746094 78.140625 114.207031 79.289062 C 113.386719 80.800781 110.710938 81.492188 108.082031 81.019531 C 105.445312 80.386719 103.511719 78.667969 103.828125 76.988281 C 103.996094 76.226562 104.539062 75.582031 105.339844 75.128906 C 106.742188 74.289062 107.132812 74.832031 108.578125 73.347656 C 109.1875 72.6875 109.660156 71.871094 109.929688 70.941406 C 111.460938 65.511719 106.636719 64.9375 107.847656 60.160156 C 108.726562 56.777344 112.246094 54.746094 115.679688 55.664062 C 115.6875 55.664062 115.6875 55.664062 115.691406 55.664062 C 116.273438 55.808594 116.84375 56.03125 117.386719 56.34375 C 121.820312 58.914062 118.535156 62.671875 123.714844 65.5 C 125.253906 66.300781 126.988281 66.449219 128.5625 65.933594 C 128.550781 65.945312 128.550781 65.945312 128.546875 65.945312 Z M 104.558594 45.222656 C 107.128906 46.613281 109.414062 46.386719 111.390625 44.574219 C 113.355469 42.816406 112.546875 42.597656 113.839844 41.007812 C 114.5 40.210938 115.46875 39.621094 117.027344 39.285156 C 124.019531 38.0625 127.6875 49.003906 120.511719 50.847656 C 118.609375 51.34375 117.222656 51.101562 116.027344 50.410156 C 114.207031 49.367188 115.046875 49.203125 112.625 48.566406 C 109.890625 47.871094 107.824219 48.839844 106.171875 51.5 C 105.542969 53.648438 103.867188 55.332031 101.804688 55.875 C 101.804688 55.875 101.804688 55.875 101.800781 55.875 C 98.722656 56.734375 95.742188 54.777344 95.050781 51.582031 C 94.667969 49.589844 95.261719 47.539062 96.492188 46.046875 C 98.433594 43.804688 99.28125 43.34375 99.730469 40.105469 C 99.898438 39.03125 99.824219 38.054688 99.496094 37.273438 C 99.003906 36.050781 98.679688 36.339844 97.988281 35.664062 C 97.390625 35.089844 97.175781 34.28125 97.492188 33.320312 C 98.152344 31.589844 100.558594 29.871094 102.976562 29.296875 C 105.5625 28.855469 107.523438 29.863281 107.308594 31.746094 C 107.226562 32.492188 106.863281 33.246094 106.265625 33.933594 C 104.921875 35.554688 104.277344 35.023438 103.050781 37.183594 C 102.601562 38.007812 102.308594 38.929688 102.222656 39.875 C 102.019531 42.566406 102.8125 43.644531 104.558594 45.222656 Z M 93.761719 59.792969 C 96.394531 59.929688 98.828125 62.589844 99.03125 65.621094 C 99.3125 68.496094 97.402344 70.359375 94.945312 69.925781 C 92.726562 69.40625 90.699219 67.011719 90.238281 64.445312 C 89.894531 61.742188 91.390625 59.601562 93.761719 59.792969 Z M 91.765625 39.152344 C 93.230469 38.71875 94.234375 39.84375 93.902344 41.746094 C 93.625 43.742188 92.054688 45.609375 90.492188 45.859375 C 89.101562 46.113281 88.347656 44.820312 88.722656 43.007812 C 89.148438 41.308594 90.464844 39.609375 91.765625 39.152344 Z M 129.0625 35.621094 C 130.410156 35.996094 131.765625 37.378906 132.125 38.738281 C 132.476562 40.222656 131.628906 41.230469 130.183594 40.960938 C 128.644531 40.71875 127.140625 39.195312 126.898438 37.621094 C 126.632812 36.144531 127.617188 35.269531 129.0625 35.621094 Z M 129.0625 35.621094 " clip-rule="nonzero"/></clipPath><linearGradient x1="434.015359" gradientTransform="matrix(0.116634, 0, 0, -0.116634, 88.350355, 185.175516)" y1="1329.323917" x2="-4.949989" gradientUnits="userSpaceOnUse" y2="898.348878" id="663fad4b09"><stop stop-opacity="1" stop-color="rgb(5.099487%, 93.728638%, 96.469116%)" offset="0"/><stop stop-opacity="1" stop-color="rgb(5.099487%, 93.728638%, 96.469116%)" offset="0.125"/><stop stop-opacity="1" stop-color="rgb(5.099487%, 93.728638%, 96.469116%)" offset="0.1875"/><stop stop-opacity="1" stop-color="rgb(5.099487%, 93.728638%, 96.469116%)" offset="0.21875"/><stop stop-opacity="1" stop-color="rgb(5.117798%, 93.708801%, 96.469116%)" offset="0.226562"/><stop stop-opacity="1" stop-color="rgb(5.781555%, 93.048096%, 96.476746%)" offset="0.230469"/><stop stop-opacity="1" stop-color="rgb(6.425476%, 92.407227%, 96.485901%)" offset="0.234375"/><stop stop-opacity="1" stop-color="rgb(7.069397%, 91.764832%, 96.49353%)" offset="0.238281"/><stop stop-opacity="1" stop-color="rgb(7.714844%, 91.123962%, 96.502686%)" offset="0.242188"/><stop stop-opacity="1" stop-color="rgb(8.358765%, 90.481567%, 96.510315%)" offset="0.246094"/><stop stop-opacity="1" stop-color="rgb(9.002686%, 89.840698%, 96.517944%)" offset="0.25"/><stop stop-opacity="1" stop-color="rgb(9.646606%, 89.198303%, 96.525574%)" offset="0.253906"/><stop stop-opacity="1" stop-color="rgb(10.292053%, 88.557434%, 96.534729%)" offset="0.257812"/><stop stop-opacity="1" stop-color="rgb(10.935974%, 87.915039%, 96.542358%)" offset="0.261719"/><stop stop-opacity="1" stop-color="rgb(11.579895%, 87.27417%, 96.551514%)" offset="0.265625"/><stop stop-opacity="1" stop-color="rgb(12.223816%, 86.631775%, 96.559143%)" offset="0.269531"/><stop stop-opacity="1" stop-color="rgb(12.869263%, 85.990906%, 96.566772%)" offset="0.273438"/><stop stop-opacity="1" stop-color="rgb(13.513184%, 85.348511%, 96.574402%)" offset="0.277344"/><stop stop-opacity="1" stop-color="rgb(14.15863%, 84.707642%, 96.583557%)" offset="0.28125"/><stop stop-opacity="1" stop-color="rgb(14.802551%, 84.065247%, 96.591187%)" offset="0.285156"/><stop stop-opacity="1" stop-color="rgb(15.446472%, 83.424377%, 96.598816%)" offset="0.289062"/><stop stop-opacity="1" stop-color="rgb(16.090393%, 82.781982%, 96.606445%)" offset="0.292969"/><stop stop-opacity="1" stop-color="rgb(16.73584%, 82.141113%, 96.615601%)" offset="0.296875"/><stop stop-opacity="1" stop-color="rgb(17.379761%, 81.498718%, 96.62323%)" offset="0.300781"/><stop stop-opacity="1" stop-color="rgb(18.023682%, 80.857849%, 96.632385%)" offset="0.304688"/><stop stop-opacity="1" stop-color="rgb(18.667603%, 80.215454%, 96.640015%)" offset="0.308594"/><stop stop-opacity="1" stop-color="rgb(19.313049%, 79.573059%, 96.647644%)" offset="0.3125"/><stop stop-opacity="1" stop-color="rgb(19.95697%, 78.930664%, 96.655273%)" offset="0.316406"/><stop stop-opacity="1" stop-color="rgb(20.600891%, 78.289795%, 96.664429%)" offset="0.320312"/><stop stop-opacity="1" stop-color="rgb(21.244812%, 77.6474%, 96.672058%)" offset="0.324219"/><stop stop-opacity="1" stop-color="rgb(21.890259%, 77.006531%, 96.681213%)" offset="0.328125"/><stop stop-opacity="1" stop-color="rgb(22.53418%, 76.364136%, 96.688843%)" offset="0.332031"/><stop stop-opacity="1" stop-color="rgb(23.178101%, 75.723267%, 96.696472%)" offset="0.335938"/><stop stop-opacity="1" stop-color="rgb(23.822021%, 75.080872%, 96.704102%)" offset="0.339844"/><stop stop-opacity="1" stop-color="rgb(24.467468%, 74.440002%, 96.713257%)" offset="0.34375"/><stop stop-opacity="1" stop-color="rgb(25.111389%, 73.797607%, 96.720886%)" offset="0.347656"/><stop stop-opacity="1" stop-color="rgb(25.75531%, 73.156738%, 96.730042%)" offset="0.351562"/><stop stop-opacity="1" stop-color="rgb(26.399231%, 72.514343%, 96.737671%)" offset="0.355469"/><stop stop-opacity="1" stop-color="rgb(27.044678%, 71.873474%, 96.7453%)" offset="0.359375"/><stop stop-opacity="1" stop-color="rgb(27.688599%, 71.231079%, 96.75293%)" offset="0.363281"/><stop stop-opacity="1" stop-color="rgb(28.33252%, 70.59021%, 96.762085%)" offset="0.367188"/><stop stop-opacity="1" stop-color="rgb(28.97644%, 69.947815%, 96.769714%)" offset="0.371094"/><stop stop-opacity="1" stop-color="rgb(29.621887%, 69.306946%, 96.777344%)" offset="0.375"/><stop stop-opacity="1" stop-color="rgb(30.265808%, 68.664551%, 96.784973%)" offset="0.378906"/><stop stop-opacity="1" stop-color="rgb(30.909729%, 68.023682%, 96.794128%)" offset="0.382812"/><stop stop-opacity="1" stop-color="rgb(31.55365%, 67.381287%, 96.801758%)" offset="0.386719"/><stop stop-opacity="1" stop-color="rgb(32.199097%, 66.740417%, 96.810913%)" offset="0.390625"/><stop stop-opacity="1" stop-color="rgb(32.843018%, 66.098022%, 96.818542%)" offset="0.394531"/><stop stop-opacity="1" stop-color="rgb(33.486938%, 65.455627%, 96.826172%)" offset="0.398438"/><stop stop-opacity="1" stop-color="rgb(34.130859%, 64.813232%, 96.833801%)" offset="0.402344"/><stop stop-opacity="1" stop-color="rgb(34.776306%, 64.172363%, 96.842957%)" offset="0.40625"/><stop stop-opacity="1" stop-color="rgb(35.420227%, 63.529968%, 96.850586%)" offset="0.410156"/><stop stop-opacity="1" stop-color="rgb(36.064148%, 62.889099%, 96.859741%)" offset="0.414063"/><stop stop-opacity="1" stop-color="rgb(36.708069%, 62.246704%, 96.867371%)" offset="0.417969"/><stop stop-opacity="1" stop-color="rgb(37.353516%, 61.605835%, 96.875%)" offset="0.421875"/><stop stop-opacity="1" stop-color="rgb(37.997437%, 60.96344%, 96.882629%)" offset="0.425781"/><stop stop-opacity="1" stop-color="rgb(38.641357%, 60.322571%, 96.891785%)" offset="0.429688"/><stop stop-opacity="1" stop-color="rgb(39.285278%, 59.680176%, 96.899414%)" offset="0.433594"/><stop stop-opacity="1" stop-color="rgb(39.930725%, 59.039307%, 96.907043%)" offset="0.4375"/><stop stop-opacity="1" stop-color="rgb(40.574646%, 58.396912%, 96.914673%)" offset="0.441406"/><stop stop-opacity="1" stop-color="rgb(41.218567%, 57.756042%, 96.923828%)" offset="0.445312"/><stop stop-opacity="1" stop-color="rgb(41.862488%, 57.113647%, 96.931458%)" offset="0.449219"/><stop stop-opacity="1" stop-color="rgb(42.507935%, 56.472778%, 96.940613%)" offset="0.453125"/><stop stop-opacity="1" stop-color="rgb(43.151855%, 55.830383%, 96.948242%)" offset="0.457031"/><stop stop-opacity="1" stop-color="rgb(43.795776%, 55.189514%, 96.955872%)" offset="0.460938"/><stop stop-opacity="1" stop-color="rgb(44.439697%, 54.547119%, 96.963501%)" offset="0.464844"/><stop stop-opacity="1" stop-color="rgb(45.085144%, 53.90625%, 96.972656%)" offset="0.46875"/><stop stop-opacity="1" stop-color="rgb(45.729065%, 53.263855%, 96.980286%)" offset="0.472656"/><stop stop-opacity="1" stop-color="rgb(46.372986%, 52.62146%, 96.989441%)" offset="0.476562"/><stop stop-opacity="1" stop-color="rgb(47.016907%, 51.979065%, 96.99707%)" offset="0.480469"/><stop stop-opacity="1" stop-color="rgb(47.662354%, 51.338196%, 97.0047%)" offset="0.484375"/><stop stop-opacity="1" stop-color="rgb(48.306274%, 50.695801%, 97.012329%)" offset="0.488281"/><stop stop-opacity="1" stop-color="rgb(48.950195%, 50.054932%, 97.021484%)" offset="0.492188"/><stop stop-opacity="1" stop-color="rgb(49.594116%, 49.412537%, 97.029114%)" offset="0.496094"/><stop stop-opacity="1" stop-color="rgb(50.239563%, 48.771667%, 97.038269%)" offset="0.5"/><stop stop-opacity="1" stop-color="rgb(50.883484%, 48.129272%, 97.045898%)" offset="0.503906"/><stop stop-opacity="1" stop-color="rgb(51.527405%, 47.488403%, 97.053528%)" offset="0.507812"/><stop stop-opacity="1" stop-color="rgb(52.171326%, 46.846008%, 97.061157%)" offset="0.511719"/><stop stop-opacity="1" stop-color="rgb(52.816772%, 46.205139%, 97.070312%)" offset="0.515625"/><stop stop-opacity="1" stop-color="rgb(53.460693%, 45.562744%, 97.077942%)" offset="0.519531"/><stop stop-opacity="1" stop-color="rgb(54.10614%, 44.921875%, 97.085571%)" offset="0.523438"/><stop stop-opacity="1" stop-color="rgb(54.750061%, 44.27948%, 97.093201%)" offset="0.527344"/><stop stop-opacity="1" stop-color="rgb(55.393982%, 43.638611%, 97.102356%)" offset="0.53125"/><stop stop-opacity="1" stop-color="rgb(56.037903%, 42.996216%, 97.109985%)" offset="0.535156"/><stop stop-opacity="1" stop-color="rgb(56.68335%, 42.355347%, 97.119141%)" offset="0.539062"/><stop stop-opacity="1" stop-color="rgb(57.327271%, 41.712952%, 97.12677%)" offset="0.542969"/><stop stop-opacity="1" stop-color="rgb(57.971191%, 41.072083%, 97.134399%)" offset="0.546875"/><stop stop-opacity="1" stop-color="rgb(58.615112%, 40.429688%, 97.142029%)" offset="0.550781"/><stop stop-opacity="1" stop-color="rgb(59.260559%, 39.788818%, 97.151184%)" offset="0.554688"/><stop stop-opacity="1" stop-color="rgb(59.90448%, 39.146423%, 97.158813%)" offset="0.558594"/><stop stop-opacity="1" stop-color="rgb(60.548401%, 38.504028%, 97.167969%)" offset="0.5625"/><stop stop-opacity="1" stop-color="rgb(61.192322%, 37.861633%, 97.175598%)" offset="0.566406"/><stop stop-opacity="1" stop-color="rgb(61.837769%, 37.220764%, 97.183228%)" offset="0.570312"/><stop stop-opacity="1" stop-color="rgb(62.481689%, 36.578369%, 97.190857%)" offset="0.574219"/><stop stop-opacity="1" stop-color="rgb(63.12561%, 35.9375%, 97.200012%)" offset="0.578125"/><stop stop-opacity="1" stop-color="rgb(63.769531%, 35.295105%, 97.207642%)" offset="0.582031"/><stop stop-opacity="1" stop-color="rgb(64.414978%, 34.654236%, 97.216797%)" offset="0.585938"/><stop stop-opacity="1" stop-color="rgb(65.058899%, 34.011841%, 97.224426%)" offset="0.589844"/><stop stop-opacity="1" stop-color="rgb(65.70282%, 33.370972%, 97.232056%)" offset="0.59375"/><stop stop-opacity="1" stop-color="rgb(66.346741%, 32.728577%, 97.239685%)" offset="0.597656"/><stop stop-opacity="1" stop-color="rgb(66.992188%, 32.087708%, 97.24884%)" offset="0.601562"/><stop stop-opacity="1" stop-color="rgb(67.636108%, 31.445312%, 97.25647%)" offset="0.605469"/><stop stop-opacity="1" stop-color="rgb(68.280029%, 30.804443%, 97.264099%)" offset="0.609375"/><stop stop-opacity="1" stop-color="rgb(68.92395%, 30.162048%, 97.271729%)" offset="0.613281"/><stop stop-opacity="1" stop-color="rgb(69.569397%, 29.521179%, 97.280884%)" offset="0.617188"/><stop stop-opacity="1" stop-color="rgb(70.213318%, 28.878784%, 97.288513%)" offset="0.621094"/><stop stop-opacity="1" stop-color="rgb(70.857239%, 28.237915%, 97.297668%)" offset="0.625"/><stop stop-opacity="1" stop-color="rgb(71.50116%, 27.59552%, 97.305298%)" offset="0.628906"/><stop stop-opacity="1" stop-color="rgb(72.146606%, 26.954651%, 97.312927%)" offset="0.632812"/><stop stop-opacity="1" stop-color="rgb(72.790527%, 26.312256%, 97.320557%)" offset="0.636719"/><stop stop-opacity="1" stop-color="rgb(73.434448%, 25.671387%, 97.329712%)" offset="0.640625"/><stop stop-opacity="1" stop-color="rgb(74.078369%, 25.028992%, 97.337341%)" offset="0.644531"/><stop stop-opacity="1" stop-color="rgb(74.723816%, 24.386597%, 97.346497%)" offset="0.648438"/><stop stop-opacity="1" stop-color="rgb(75.367737%, 23.744202%, 97.354126%)" offset="0.652344"/><stop stop-opacity="1" stop-color="rgb(76.011658%, 23.103333%, 97.361755%)" offset="0.65625"/><stop stop-opacity="1" stop-color="rgb(76.655579%, 22.460938%, 97.369385%)" offset="0.660156"/><stop stop-opacity="1" stop-color="rgb(77.301025%, 21.820068%, 97.37854%)" offset="0.664062"/><stop stop-opacity="1" stop-color="rgb(77.944946%, 21.177673%, 97.386169%)" offset="0.667969"/><stop stop-opacity="1" stop-color="rgb(78.588867%, 20.536804%, 97.393799%)" offset="0.671875"/><stop stop-opacity="1" stop-color="rgb(79.232788%, 19.894409%, 97.401428%)" offset="0.675781"/><stop stop-opacity="1" stop-color="rgb(79.878235%, 19.25354%, 97.410583%)" offset="0.679688"/><stop stop-opacity="1" stop-color="rgb(80.522156%, 18.611145%, 97.418213%)" offset="0.683594"/><stop stop-opacity="1" stop-color="rgb(81.166077%, 17.970276%, 97.427368%)" offset="0.6875"/><stop stop-opacity="1" stop-color="rgb(81.809998%, 17.327881%, 97.434998%)" offset="0.691406"/><stop stop-opacity="1" stop-color="rgb(82.455444%, 16.687012%, 97.442627%)" offset="0.695312"/><stop stop-opacity="1" stop-color="rgb(83.099365%, 16.044617%, 97.450256%)" offset="0.699219"/><stop stop-opacity="1" stop-color="rgb(83.743286%, 15.403748%, 97.459412%)" offset="0.703125"/><stop stop-opacity="1" stop-color="rgb(84.387207%, 14.761353%, 97.467041%)" offset="0.707031"/><stop stop-opacity="1" stop-color="rgb(85.032654%, 14.120483%, 97.476196%)" offset="0.710938"/><stop stop-opacity="1" stop-color="rgb(85.676575%, 13.478088%, 97.483826%)" offset="0.714844"/><stop stop-opacity="1" stop-color="rgb(86.320496%, 12.837219%, 97.491455%)" offset="0.71875"/><stop stop-opacity="1" stop-color="rgb(86.964417%, 12.194824%, 97.499084%)" offset="0.722656"/><stop stop-opacity="1" stop-color="rgb(87.609863%, 11.553955%, 97.50824%)" offset="0.726562"/><stop stop-opacity="1" stop-color="rgb(88.253784%, 10.91156%, 97.515869%)" offset="0.730469"/><stop stop-opacity="1" stop-color="rgb(88.897705%, 10.269165%, 97.525024%)" offset="0.734375"/><stop stop-opacity="1" stop-color="rgb(89.541626%, 9.62677%, 97.532654%)" offset="0.738281"/><stop stop-opacity="1" stop-color="rgb(90.187073%, 8.985901%, 97.540283%)" offset="0.742188"/><stop stop-opacity="1" stop-color="rgb(90.830994%, 8.343506%, 97.547913%)" offset="0.746094"/><stop stop-opacity="1" stop-color="rgb(91.474915%, 7.702637%, 97.557068%)" offset="0.75"/><stop stop-opacity="1" stop-color="rgb(92.118835%, 7.060242%, 97.564697%)" offset="0.753906"/><stop stop-opacity="1" stop-color="rgb(92.764282%, 6.419373%, 97.572327%)" offset="0.757812"/><stop stop-opacity="1" stop-color="rgb(93.408203%, 5.776978%, 97.579956%)" offset="0.761719"/><stop stop-opacity="1" stop-color="rgb(94.05365%, 5.136108%, 97.589111%)" offset="0.765625"/><stop stop-opacity="1" stop-color="rgb(94.697571%, 4.493713%, 97.596741%)" offset="0.769531"/><stop stop-opacity="1" stop-color="rgb(95.341492%, 3.852844%, 97.605896%)" offset="0.773438"/><stop stop-opacity="1" stop-color="rgb(95.985413%, 3.210449%, 97.613525%)" offset="0.777344"/><stop stop-opacity="1" stop-color="rgb(96.630859%, 2.56958%, 97.621155%)" offset="0.78125"/><stop stop-opacity="1" stop-color="rgb(97.27478%, 1.927185%, 97.628784%)" offset="0.785156"/><stop stop-opacity="1" stop-color="rgb(97.918701%, 1.286316%, 97.637939%)" offset="0.789062"/><stop stop-opacity="1" stop-color="rgb(98.368835%, 0.837708%, 97.642517%)" offset="0.792969"/><stop stop-opacity="1" stop-color="rgb(98.81897%, 0.389099%, 97.648621%)" offset="0.796875"/><stop stop-opacity="1" stop-color="rgb(98.81897%, 0.389099%, 97.648621%)" offset="0.8125"/><stop stop-opacity="1" stop-color="rgb(98.81897%, 0.389099%, 97.648621%)" offset="0.875"/><stop stop-opacity="1" stop-color="rgb(98.81897%, 0.389099%, 97.648621%)" offset="1"/></linearGradient><clipPath id="cfb4b32b48"><rect x="0" width="220" y="0" height="225"/></clipPath></defs><g transform="matrix(1, 0, 0, 1, 74, -0.000000000000008531)"><g clip-path="url(#cfb4b32b48)"><g clip-path="url(#b9ae7ca39e)"><g clip-path="url(#944d0e545e)"><path fill="url(#663fad4b09)" d="M 88.582031 81.222656 L 88.582031 29.085938 L 137.945312 29.085938 L 137.945312 81.222656 Z M 88.582031 81.222656 " fill-rule="nonzero"/></g></g><g fill="#2c0a71" fill-opacity="1"><g transform="translate(0.537187, 173.723315)"><g><path d="M 8.53125 -142.203125 L 46.3125 -142.203125 L 46.3125 0 L 8.53125 0 Z M 8.53125 -142.203125 "/></g></g></g><g fill="#2c0a71" fill-opacity="1"><g transform="translate(30.392546, 173.723315)"><g><path d="M 2.03125 -142.203125 L 42.046875 -142.203125 L 83.078125 -32.5 L 124.328125 -142.203125 L 164.546875 -142.203125 L 110.71875 0 L 55.65625 0 Z M 2.03125 -142.203125 "/></g></g></g><g fill="#2c0a71" fill-opacity="1"><g transform="translate(171.964515, 173.723315)"><g><path d="M 8.53125 -142.203125 L 46.3125 -142.203125 L 46.3125 0 L 8.53125 0 Z M 8.53125 -142.203125 "/></g></g></g></g></g></svg>