<svg xmlns="http://www.w3.org/2000/svg" xmlns:xlink="http://www.w3.org/1999/xlink" width="500" zoomAndPan="magnify" viewBox="0 0 375 225" height="300" preserveAspectRatio="xMidYMid meet" version="1.0"><defs><g/><clipPath id="a1010900b7"><path d="M 0.160156 0.601562 L 358.71875 0.601562 L 358.71875 191.640625 L 0.160156 191.640625 Z M 0.160156 0.601562 " clip-rule="nonzero"/></clipPath><clipPath id="9b23e67abd"><rect x="0" width="359" y="0" height="192"/></clipPath><clipPath id="75c0182d53"><path d="M 248.964844 17.273438 L 281.804688 17.273438 L 281.804688 51.558594 L 248.964844 51.558594 Z M 248.964844 17.273438 " clip-rule="nonzero"/></clipPath><clipPath id="042fa75a08"><path d="M 266.492188 17.285156 C 267.875 17.367188 269.09375 18.136719 269.242188 19.074219 C 269.371094 20.132812 268.226562 20.996094 266.683594 20.929688 C 265.113281 20.90625 263.867188 19.957031 263.898438 18.882812 C 263.929688 17.9375 265.097656 17.253906 266.492188 17.285156 M 271.238281 49.214844 C 272.363281 49.03125 273.058594 49.488281 272.820312 50.175781 C 272.585938 50.769531 271.578125 51.386719 270.582031 51.597656 C 269.535156 51.777344 268.757812 51.464844 268.882812 50.835938 C 268.996094 50.121094 270.058594 49.371094 271.238281 49.214844 Z M 275.640625 41.875 C 275.847656 41.746094 276.0625 41.632812 276.273438 41.546875 C 277.054688 40.851562 277.671875 39.859375 277.996094 38.765625 C 278.328125 37.550781 278.292969 36.304688 277.90625 35.273438 C 277.910156 35.285156 277.910156 35.285156 277.910156 35.285156 C 277.222656 34.34375 276.898438 32.984375 277.160156 31.652344 C 277.507812 29.640625 279.003906 28.65625 280.414062 29.371094 C 281.601562 30.058594 282.335938 31.988281 282.15625 33.761719 C 281.984375 34.945312 281.429688 35.867188 280.703125 36.242188 C 280.707031 36.242188 280.707031 36.242188 280.707031 36.242188 C 280.078125 36.890625 279.535156 37.914062 279.21875 39.058594 C 279.035156 39.683594 278.933594 40.296875 278.914062 40.863281 C 278.839844 42.136719 279.234375 41.96875 279.359375 42.855469 C 279.441406 43.605469 279.15625 44.554688 278.558594 45.445312 C 277.707031 46.660156 276.332031 47.597656 275.144531 47.660156 C 272.558594 47.574219 273.945312 45.46875 272.664062 44.03125 C 272.34375 43.667969 271.9375 43.351562 271.457031 43.105469 C 270.882812 42.820312 270.25 42.640625 269.589844 42.582031 C 267.28125 42.339844 265.625 43.542969 264.984375 45.632812 C 264.808594 46.167969 264.765625 46.695312 264.824219 47.1875 C 264.859375 47.570312 265.296875 48.511719 265.296875 48.511719 C 266.105469 49.160156 266.429688 50.015625 266.070312 50.785156 C 265.523438 51.792969 263.734375 52.253906 261.980469 51.9375 C 260.21875 51.515625 258.929688 50.371094 259.140625 49.25 C 259.253906 48.738281 259.617188 48.3125 260.152344 48.007812 C 261.085938 47.445312 261.347656 47.808594 262.3125 46.820312 C 262.71875 46.378906 263.035156 45.832031 263.214844 45.210938 C 264.234375 41.585938 261.015625 41.203125 261.824219 38.015625 C 262.410156 35.757812 264.761719 34.402344 267.054688 35.011719 C 267.054688 35.015625 267.054688 35.015625 267.058594 35.015625 C 267.449219 35.109375 267.828125 35.261719 268.191406 35.46875 C 271.152344 37.183594 268.957031 39.691406 272.417969 41.578125 C 273.441406 42.113281 274.601562 42.210938 275.652344 41.867188 C 275.644531 41.875 275.644531 41.875 275.640625 41.875 Z M 259.628906 28.042969 C 261.34375 28.972656 262.867188 28.820312 264.191406 27.613281 C 265.5 26.4375 264.960938 26.292969 265.824219 25.230469 C 266.261719 24.699219 266.910156 24.304688 267.949219 24.082031 C 272.621094 23.265625 275.066406 30.566406 270.277344 31.800781 C 269.007812 32.128906 268.082031 31.96875 267.285156 31.507812 C 266.066406 30.808594 266.628906 30.699219 265.011719 30.277344 C 263.1875 29.8125 261.808594 30.457031 260.707031 32.234375 C 260.285156 33.667969 259.167969 34.792969 257.789062 35.15625 C 255.734375 35.726562 253.742188 34.421875 253.28125 32.289062 C 253.023438 30.957031 253.421875 29.589844 254.242188 28.59375 C 255.539062 27.097656 256.105469 26.792969 256.40625 24.628906 C 256.519531 23.914062 256.46875 23.261719 256.25 22.738281 C 255.921875 21.921875 255.703125 22.117188 255.242188 21.664062 C 254.84375 21.28125 254.703125 20.742188 254.910156 20.097656 C 255.351562 18.945312 256.960938 17.796875 258.570312 17.414062 C 260.296875 17.121094 261.609375 17.792969 261.464844 19.046875 C 261.410156 19.546875 261.167969 20.050781 260.769531 20.507812 C 259.871094 21.589844 259.441406 21.234375 258.621094 22.679688 C 258.324219 23.230469 258.125 23.84375 258.070312 24.476562 C 257.933594 26.273438 258.460938 26.992188 259.628906 28.042969 Z M 252.421875 37.769531 C 254.179688 37.863281 255.804688 39.636719 255.941406 41.660156 C 256.125 43.582031 254.851562 44.824219 253.210938 44.535156 C 251.730469 44.1875 250.378906 42.589844 250.070312 40.875 C 249.839844 39.074219 250.835938 37.644531 252.421875 37.769531 Z M 251.089844 23.992188 C 252.066406 23.703125 252.734375 24.453125 252.515625 25.722656 C 252.332031 27.054688 251.28125 28.304688 250.238281 28.46875 C 249.3125 28.640625 248.808594 27.777344 249.058594 26.566406 C 249.339844 25.429688 250.222656 24.296875 251.089844 23.992188 Z M 275.984375 21.632812 C 276.886719 21.886719 277.789062 22.808594 278.03125 23.71875 C 278.265625 24.707031 277.699219 25.378906 276.734375 25.199219 C 275.707031 25.039062 274.703125 24.019531 274.539062 22.96875 C 274.363281 21.984375 275.019531 21.398438 275.984375 21.632812 Z M 275.984375 21.632812 " clip-rule="nonzero"/></clipPath><linearGradient x1="433.295321" gradientTransform="matrix(0.0778547, 0, 0, -0.0778547, 248.809335, 121.464453)" y1="1328.616985" x2="-1.626983" gradientUnits="userSpaceOnUse" y2="901.611397" id="370612cebd"><stop stop-opacity="1" stop-color="rgb(5.099487%, 93.728638%, 96.469116%)" offset="0"/><stop stop-opacity="1" stop-color="rgb(5.099487%, 93.728638%, 96.469116%)" offset="0.125"/><stop stop-opacity="1" stop-color="rgb(5.099487%, 93.728638%, 96.469116%)" offset="0.1875"/><stop stop-opacity="1" stop-color="rgb(5.099487%, 93.728638%, 96.469116%)" offset="0.21875"/><stop stop-opacity="1" stop-color="rgb(5.099487%, 93.728638%, 96.469116%)" offset="0.226563"/><stop stop-opacity="1" stop-color="rgb(5.718994%, 93.110657%, 96.476746%)" offset="0.230469"/><stop stop-opacity="1" stop-color="rgb(6.340027%, 92.492676%, 96.484375%)" offset="0.234375"/><stop stop-opacity="1" stop-color="rgb(6.977844%, 91.856384%, 96.492004%)" offset="0.238281"/><stop stop-opacity="1" stop-color="rgb(7.617188%, 91.221619%, 96.50116%)" offset="0.242188"/><stop stop-opacity="1" stop-color="rgb(8.255005%, 90.585327%, 96.508789%)" offset="0.246094"/><stop stop-opacity="1" stop-color="rgb(8.894348%, 89.949036%, 96.516418%)" offset="0.25"/><stop stop-opacity="1" stop-color="rgb(9.532166%, 89.312744%, 96.524048%)" offset="0.253906"/><stop stop-opacity="1" stop-color="rgb(10.171509%, 88.677979%, 96.533203%)" offset="0.257812"/><stop stop-opacity="1" stop-color="rgb(10.809326%, 88.041687%, 96.540833%)" offset="0.261719"/><stop stop-opacity="1" stop-color="rgb(11.447144%, 87.406921%, 96.548462%)" offset="0.265625"/><stop stop-opacity="1" stop-color="rgb(12.084961%, 86.77063%, 96.556091%)" offset="0.269531"/><stop stop-opacity="1" stop-color="rgb(12.724304%, 86.134338%, 96.565247%)" offset="0.273438"/><stop stop-opacity="1" stop-color="rgb(13.362122%, 85.498047%, 96.572876%)" offset="0.277344"/><stop stop-opacity="1" stop-color="rgb(14.001465%, 84.863281%, 96.582031%)" offset="0.28125"/><stop stop-opacity="1" stop-color="rgb(14.639282%, 84.22699%, 96.589661%)" offset="0.285156"/><stop stop-opacity="1" stop-color="rgb(15.278625%, 83.592224%, 96.59729%)" offset="0.289062"/><stop stop-opacity="1" stop-color="rgb(15.916443%, 82.955933%, 96.604919%)" offset="0.292969"/><stop stop-opacity="1" stop-color="rgb(16.55426%, 82.319641%, 96.614075%)" offset="0.296875"/><stop stop-opacity="1" stop-color="rgb(17.192078%, 81.68335%, 96.621704%)" offset="0.300781"/><stop stop-opacity="1" stop-color="rgb(17.831421%, 81.048584%, 96.629333%)" offset="0.304688"/><stop stop-opacity="1" stop-color="rgb(18.469238%, 80.412292%, 96.636963%)" offset="0.308594"/><stop stop-opacity="1" stop-color="rgb(19.108582%, 79.777527%, 96.646118%)" offset="0.3125"/><stop stop-opacity="1" stop-color="rgb(19.746399%, 79.141235%, 96.653748%)" offset="0.316406"/><stop stop-opacity="1" stop-color="rgb(20.384216%, 78.504944%, 96.661377%)" offset="0.320312"/><stop stop-opacity="1" stop-color="rgb(21.022034%, 77.868652%, 96.669006%)" offset="0.324219"/><stop stop-opacity="1" stop-color="rgb(21.661377%, 77.233887%, 96.678162%)" offset="0.328125"/><stop stop-opacity="1" stop-color="rgb(22.299194%, 76.597595%, 96.685791%)" offset="0.332031"/><stop stop-opacity="1" stop-color="rgb(22.938538%, 75.96283%, 96.69342%)" offset="0.335938"/><stop stop-opacity="1" stop-color="rgb(23.576355%, 75.326538%, 96.70105%)" offset="0.339844"/><stop stop-opacity="1" stop-color="rgb(24.215698%, 74.690247%, 96.710205%)" offset="0.34375"/><stop stop-opacity="1" stop-color="rgb(24.853516%, 74.053955%, 96.717834%)" offset="0.347656"/><stop stop-opacity="1" stop-color="rgb(25.491333%, 73.419189%, 96.725464%)" offset="0.351563"/><stop stop-opacity="1" stop-color="rgb(26.12915%, 72.782898%, 96.733093%)" offset="0.355469"/><stop stop-opacity="1" stop-color="rgb(26.768494%, 72.148132%, 96.742249%)" offset="0.359375"/><stop stop-opacity="1" stop-color="rgb(27.406311%, 71.511841%, 96.749878%)" offset="0.363281"/><stop stop-opacity="1" stop-color="rgb(28.045654%, 70.875549%, 96.757507%)" offset="0.367188"/><stop stop-opacity="1" stop-color="rgb(28.683472%, 70.239258%, 96.765137%)" offset="0.371094"/><stop stop-opacity="1" stop-color="rgb(29.322815%, 69.604492%, 96.774292%)" offset="0.375"/><stop stop-opacity="1" stop-color="rgb(29.960632%, 68.968201%, 96.781921%)" offset="0.378906"/><stop stop-opacity="1" stop-color="rgb(30.59845%, 68.333435%, 96.789551%)" offset="0.382813"/><stop stop-opacity="1" stop-color="rgb(31.236267%, 67.697144%, 96.79718%)" offset="0.386719"/><stop stop-opacity="1" stop-color="rgb(31.87561%, 67.060852%, 96.806335%)" offset="0.390625"/><stop stop-opacity="1" stop-color="rgb(32.513428%, 66.424561%, 96.813965%)" offset="0.394531"/><stop stop-opacity="1" stop-color="rgb(33.152771%, 65.789795%, 96.82312%)" offset="0.398438"/><stop stop-opacity="1" stop-color="rgb(33.790588%, 65.153503%, 96.83075%)" offset="0.402344"/><stop stop-opacity="1" stop-color="rgb(34.429932%, 64.518738%, 96.838379%)" offset="0.40625"/><stop stop-opacity="1" stop-color="rgb(35.067749%, 63.882446%, 96.846008%)" offset="0.410156"/><stop stop-opacity="1" stop-color="rgb(35.705566%, 63.246155%, 96.855164%)" offset="0.414063"/><stop stop-opacity="1" stop-color="rgb(36.343384%, 62.609863%, 96.862793%)" offset="0.417969"/><stop stop-opacity="1" stop-color="rgb(36.982727%, 61.975098%, 96.870422%)" offset="0.421875"/><stop stop-opacity="1" stop-color="rgb(37.620544%, 61.338806%, 96.878052%)" offset="0.425781"/><stop stop-opacity="1" stop-color="rgb(38.259888%, 60.704041%, 96.887207%)" offset="0.429688"/><stop stop-opacity="1" stop-color="rgb(38.897705%, 60.067749%, 96.894836%)" offset="0.433594"/><stop stop-opacity="1" stop-color="rgb(39.537048%, 59.431458%, 96.902466%)" offset="0.4375"/><stop stop-opacity="1" stop-color="rgb(40.174866%, 58.795166%, 96.910095%)" offset="0.441406"/><stop stop-opacity="1" stop-color="rgb(40.812683%, 58.1604%, 96.91925%)" offset="0.445313"/><stop stop-opacity="1" stop-color="rgb(41.4505%, 57.524109%, 96.92688%)" offset="0.449219"/><stop stop-opacity="1" stop-color="rgb(42.089844%, 56.887817%, 96.934509%)" offset="0.453125"/><stop stop-opacity="1" stop-color="rgb(42.727661%, 56.251526%, 96.942139%)" offset="0.457031"/><stop stop-opacity="1" stop-color="rgb(43.367004%, 55.61676%, 96.951294%)" offset="0.460938"/><stop stop-opacity="1" stop-color="rgb(44.004822%, 54.980469%, 96.958923%)" offset="0.464844"/><stop stop-opacity="1" stop-color="rgb(44.644165%, 54.345703%, 96.966553%)" offset="0.46875"/><stop stop-opacity="1" stop-color="rgb(45.281982%, 53.709412%, 96.974182%)" offset="0.472656"/><stop stop-opacity="1" stop-color="rgb(45.9198%, 53.07312%, 96.983337%)" offset="0.476562"/><stop stop-opacity="1" stop-color="rgb(46.557617%, 52.436829%, 96.990967%)" offset="0.480469"/><stop stop-opacity="1" stop-color="rgb(47.19696%, 51.802063%, 96.998596%)" offset="0.484375"/><stop stop-opacity="1" stop-color="rgb(47.834778%, 51.165771%, 97.006226%)" offset="0.488281"/><stop stop-opacity="1" stop-color="rgb(48.474121%, 50.531006%, 97.015381%)" offset="0.492188"/><stop stop-opacity="1" stop-color="rgb(49.111938%, 49.894714%, 97.02301%)" offset="0.496094"/><stop stop-opacity="1" stop-color="rgb(49.749756%, 49.258423%, 97.032166%)" offset="0.5"/><stop stop-opacity="1" stop-color="rgb(50.387573%, 48.622131%, 97.039795%)" offset="0.503906"/><stop stop-opacity="1" stop-color="rgb(51.026917%, 47.987366%, 97.047424%)" offset="0.507813"/><stop stop-opacity="1" stop-color="rgb(51.664734%, 47.351074%, 97.055054%)" offset="0.511719"/><stop stop-opacity="1" stop-color="rgb(52.304077%, 46.716309%, 97.064209%)" offset="0.515625"/><stop stop-opacity="1" stop-color="rgb(52.941895%, 46.080017%, 97.071838%)" offset="0.519531"/><stop stop-opacity="1" stop-color="rgb(53.581238%, 45.443726%, 97.079468%)" offset="0.523438"/><stop stop-opacity="1" stop-color="rgb(54.219055%, 44.807434%, 97.087097%)" offset="0.527344"/><stop stop-opacity="1" stop-color="rgb(54.856873%, 44.172668%, 97.096252%)" offset="0.53125"/><stop stop-opacity="1" stop-color="rgb(55.49469%, 43.536377%, 97.103882%)" offset="0.535156"/><stop stop-opacity="1" stop-color="rgb(56.134033%, 42.901611%, 97.111511%)" offset="0.539063"/><stop stop-opacity="1" stop-color="rgb(56.771851%, 42.26532%, 97.119141%)" offset="0.542969"/><stop stop-opacity="1" stop-color="rgb(57.411194%, 41.629028%, 97.128296%)" offset="0.546875"/><stop stop-opacity="1" stop-color="rgb(58.049011%, 40.992737%, 97.135925%)" offset="0.550781"/><stop stop-opacity="1" stop-color="rgb(58.688354%, 40.357971%, 97.143555%)" offset="0.554688"/><stop stop-opacity="1" stop-color="rgb(59.326172%, 39.72168%, 97.151184%)" offset="0.558594"/><stop stop-opacity="1" stop-color="rgb(59.963989%, 39.086914%, 97.160339%)" offset="0.5625"/><stop stop-opacity="1" stop-color="rgb(60.601807%, 38.450623%, 97.167969%)" offset="0.566406"/><stop stop-opacity="1" stop-color="rgb(61.24115%, 37.814331%, 97.175598%)" offset="0.570313"/><stop stop-opacity="1" stop-color="rgb(61.878967%, 37.17804%, 97.183228%)" offset="0.574219"/><stop stop-opacity="1" stop-color="rgb(62.518311%, 36.543274%, 97.192383%)" offset="0.578125"/><stop stop-opacity="1" stop-color="rgb(63.156128%, 35.906982%, 97.200012%)" offset="0.582031"/><stop stop-opacity="1" stop-color="rgb(63.795471%, 35.272217%, 97.207642%)" offset="0.585938"/><stop stop-opacity="1" stop-color="rgb(64.433289%, 34.635925%, 97.215271%)" offset="0.589844"/><stop stop-opacity="1" stop-color="rgb(65.071106%, 33.999634%, 97.224426%)" offset="0.59375"/><stop stop-opacity="1" stop-color="rgb(65.708923%, 33.363342%, 97.232056%)" offset="0.597656"/><stop stop-opacity="1" stop-color="rgb(66.348267%, 32.728577%, 97.239685%)" offset="0.601563"/><stop stop-opacity="1" stop-color="rgb(66.986084%, 32.092285%, 97.247314%)" offset="0.605469"/><stop stop-opacity="1" stop-color="rgb(67.625427%, 31.45752%, 97.25647%)" offset="0.609375"/><stop stop-opacity="1" stop-color="rgb(68.263245%, 30.821228%, 97.264099%)" offset="0.613281"/><stop stop-opacity="1" stop-color="rgb(68.902588%, 30.184937%, 97.273254%)" offset="0.617188"/><stop stop-opacity="1" stop-color="rgb(69.540405%, 29.548645%, 97.280884%)" offset="0.621094"/><stop stop-opacity="1" stop-color="rgb(70.178223%, 28.913879%, 97.288513%)" offset="0.625"/><stop stop-opacity="1" stop-color="rgb(70.81604%, 28.277588%, 97.296143%)" offset="0.628906"/><stop stop-opacity="1" stop-color="rgb(71.455383%, 27.642822%, 97.305298%)" offset="0.632812"/><stop stop-opacity="1" stop-color="rgb(72.093201%, 27.006531%, 97.312927%)" offset="0.636719"/><stop stop-opacity="1" stop-color="rgb(72.732544%, 26.370239%, 97.320557%)" offset="0.640625"/><stop stop-opacity="1" stop-color="rgb(73.370361%, 25.733948%, 97.328186%)" offset="0.644531"/><stop stop-opacity="1" stop-color="rgb(74.008179%, 25.099182%, 97.337341%)" offset="0.648438"/><stop stop-opacity="1" stop-color="rgb(74.645996%, 24.462891%, 97.344971%)" offset="0.652344"/><stop stop-opacity="1" stop-color="rgb(75.285339%, 23.826599%, 97.3526%)" offset="0.65625"/><stop stop-opacity="1" stop-color="rgb(75.923157%, 23.190308%, 97.360229%)" offset="0.660156"/><stop stop-opacity="1" stop-color="rgb(76.5625%, 22.555542%, 97.369385%)" offset="0.664062"/><stop stop-opacity="1" stop-color="rgb(77.200317%, 21.91925%, 97.377014%)" offset="0.667969"/><stop stop-opacity="1" stop-color="rgb(77.839661%, 21.284485%, 97.384644%)" offset="0.671875"/><stop stop-opacity="1" stop-color="rgb(78.477478%, 20.648193%, 97.392273%)" offset="0.675781"/><stop stop-opacity="1" stop-color="rgb(79.115295%, 20.011902%, 97.401428%)" offset="0.679688"/><stop stop-opacity="1" stop-color="rgb(79.753113%, 19.37561%, 97.409058%)" offset="0.683594"/><stop stop-opacity="1" stop-color="rgb(80.392456%, 18.740845%, 97.416687%)" offset="0.6875"/><stop stop-opacity="1" stop-color="rgb(81.030273%, 18.104553%, 97.424316%)" offset="0.691406"/><stop stop-opacity="1" stop-color="rgb(81.669617%, 17.469788%, 97.433472%)" offset="0.695312"/><stop stop-opacity="1" stop-color="rgb(82.307434%, 16.833496%, 97.441101%)" offset="0.699219"/><stop stop-opacity="1" stop-color="rgb(82.946777%, 16.197205%, 97.44873%)" offset="0.703125"/><stop stop-opacity="1" stop-color="rgb(83.584595%, 15.560913%, 97.45636%)" offset="0.707031"/><stop stop-opacity="1" stop-color="rgb(84.222412%, 14.926147%, 97.465515%)" offset="0.710938"/><stop stop-opacity="1" stop-color="rgb(84.860229%, 14.289856%, 97.473145%)" offset="0.714844"/><stop stop-opacity="1" stop-color="rgb(85.499573%, 13.65509%, 97.480774%)" offset="0.71875"/><stop stop-opacity="1" stop-color="rgb(86.13739%, 13.018799%, 97.488403%)" offset="0.722656"/><stop stop-opacity="1" stop-color="rgb(86.776733%, 12.382507%, 97.497559%)" offset="0.726563"/><stop stop-opacity="1" stop-color="rgb(87.414551%, 11.746216%, 97.505188%)" offset="0.730469"/><stop stop-opacity="1" stop-color="rgb(88.053894%, 11.11145%, 97.514343%)" offset="0.734375"/><stop stop-opacity="1" stop-color="rgb(88.691711%, 10.475159%, 97.521973%)" offset="0.738281"/><stop stop-opacity="1" stop-color="rgb(89.329529%, 9.840393%, 97.529602%)" offset="0.742188"/><stop stop-opacity="1" stop-color="rgb(89.967346%, 9.204102%, 97.537231%)" offset="0.746094"/><stop stop-opacity="1" stop-color="rgb(90.606689%, 8.56781%, 97.546387%)" offset="0.75"/><stop stop-opacity="1" stop-color="rgb(91.244507%, 7.931519%, 97.554016%)" offset="0.753906"/><stop stop-opacity="1" stop-color="rgb(91.88385%, 7.296753%, 97.561646%)" offset="0.757813"/><stop stop-opacity="1" stop-color="rgb(92.521667%, 6.660461%, 97.569275%)" offset="0.761719"/><stop stop-opacity="1" stop-color="rgb(93.161011%, 6.025696%, 97.57843%)" offset="0.765625"/><stop stop-opacity="1" stop-color="rgb(93.798828%, 5.389404%, 97.58606%)" offset="0.769531"/><stop stop-opacity="1" stop-color="rgb(94.436646%, 4.753113%, 97.593689%)" offset="0.773438"/><stop stop-opacity="1" stop-color="rgb(95.074463%, 4.116821%, 97.601318%)" offset="0.777344"/><stop stop-opacity="1" stop-color="rgb(95.713806%, 3.482056%, 97.610474%)" offset="0.78125"/><stop stop-opacity="1" stop-color="rgb(96.351624%, 2.845764%, 97.618103%)" offset="0.785156"/><stop stop-opacity="1" stop-color="rgb(96.990967%, 2.210999%, 97.625732%)" offset="0.789063"/><stop stop-opacity="1" stop-color="rgb(97.628784%, 1.574707%, 97.633362%)" offset="0.792969"/><stop stop-opacity="1" stop-color="rgb(98.268127%, 0.938416%, 97.642517%)" offset="0.796875"/><stop stop-opacity="1" stop-color="rgb(98.542786%, 0.663757%, 97.645569%)" offset="0.800781"/><stop stop-opacity="1" stop-color="rgb(98.81897%, 0.389099%, 97.648621%)" offset="0.804688"/><stop stop-opacity="1" stop-color="rgb(98.81897%, 0.389099%, 97.648621%)" offset="0.8125"/><stop stop-opacity="1" stop-color="rgb(98.81897%, 0.389099%, 97.648621%)" offset="0.875"/><stop stop-opacity="1" stop-color="rgb(98.81897%, 0.389099%, 97.648621%)" offset="1"/></linearGradient><clipPath id="fa421eb871"><rect x="0" width="359" y="0" height="192"/></clipPath></defs><g transform="matrix(1, 0, 0, 1, 8, 27)"><g clip-path="url(#fa421eb871)"><g clip-path="url(#a1010900b7)"><g transform="matrix(1, 0, 0, 1, 0, -0.000000000000007105)"><g clip-path="url(#9b23e67abd)"><g fill="#2c0a71" fill-opacity="1"><g transform="translate(1.170672, 123.695497)"><g><path d="M 3.4375 -66.890625 L 32.78125 -66.890625 L 44.71875 -30.296875 L 56.578125 -66.890625 L 85.71875 -66.890625 L 85.71875 0 L 65.453125 0 L 65.5625 -44.71875 L 50.265625 0 L 38.890625 0 L 23.796875 -44.4375 L 23.796875 0 L 3.4375 0 Z M 3.4375 -66.890625 "/></g></g></g><g fill="#2c0a71" fill-opacity="1"><g transform="translate(90.23725, 123.695497)"><g><path d="M 25.515625 -66.890625 L 55.421875 -66.890625 L 79.984375 0 L 58.296875 0 L 53.890625 -12.234375 L 26.953125 -12.234375 L 22.546875 0 L 0.953125 0 Z M 48.15625 -28 L 40.421875 -49.59375 L 32.6875 -28 Z M 48.15625 -28 "/></g></g></g><g fill="#2c0a71" fill-opacity="1"><g transform="translate(170.89411, 123.695497)"><g><path d="M 0.953125 -66.890625 L 22.546875 -66.890625 L 40.421875 -17.296875 L 58.296875 -66.890625 L 79.984375 -66.890625 L 55.421875 0 L 25.515625 0 Z M 0.953125 -66.890625 "/></g></g></g><g fill="#2c0a71" fill-opacity="1"><g transform="translate(251.550971, 123.695497)"><g><path d="M 3.4375 -66.890625 L 23.796875 -66.890625 L 23.796875 0 L 3.4375 0 Z M 3.4375 -66.890625 "/></g></g></g><g fill="#2c0a71" fill-opacity="1"><g transform="translate(278.691435, 123.695497)"><g><path d="M 3.0625 -66.890625 L 23.40625 -66.890625 L 23.40625 -41.375 L 40.703125 -41.375 L 55.328125 -66.890625 L 78.546875 -66.890625 L 59.25 -33.453125 L 78.546875 0 L 55.328125 0 L 40.703125 -25.515625 L 23.40625 -25.515625 L 23.40625 0 L 3.0625 0 Z M 3.0625 -66.890625 "/></g></g></g></g></g></g><g clip-path="url(#75c0182d53)"><g clip-path="url(#042fa75a08)"><path fill="url(#370612cebd)" d="M 248.964844 51.558594 L 248.964844 17.273438 L 281.804688 17.273438 L 281.804688 51.558594 Z M 248.964844 51.558594 " fill-rule="nonzero"/></g></g></g></g></svg>