<svg xmlns="http://www.w3.org/2000/svg" xmlns:xlink="http://www.w3.org/1999/xlink" width="500" zoomAndPan="magnify" viewBox="0 0 375 374.999991" height="500" preserveAspectRatio="xMidYMid meet" version="1.0"><defs><g/><clipPath id="0383706b26"><rect x="0" width="205" y="0" height="110"/></clipPath><clipPath id="19c71e39f9"><path d="M 227 142.269531 L 245.675781 142.269531 L 245.675781 161.765625 L 227 161.765625 Z M 227 142.269531 " clip-rule="nonzero"/></clipPath><clipPath id="e2e0d6447c"><path d="M 236.96875 142.277344 C 237.753906 142.324219 238.445312 142.757812 238.53125 143.292969 C 238.605469 143.894531 237.953125 144.386719 237.074219 144.347656 C 236.183594 144.335938 235.476562 143.796875 235.492188 143.183594 C 235.511719 142.648438 236.175781 142.257812 236.96875 142.277344 M 239.667969 160.433594 C 240.308594 160.328125 240.703125 160.589844 240.566406 160.980469 C 240.433594 161.316406 239.859375 161.667969 239.292969 161.789062 C 238.699219 161.890625 238.257812 161.710938 238.328125 161.355469 C 238.394531 160.949219 238.996094 160.519531 239.667969 160.433594 Z M 242.171875 156.257812 C 242.289062 156.183594 242.410156 156.121094 242.527344 156.070312 C 242.972656 155.675781 243.324219 155.113281 243.511719 154.492188 C 243.699219 153.800781 243.679688 153.09375 243.457031 152.503906 C 243.460938 152.511719 243.460938 152.511719 243.460938 152.511719 C 243.070312 151.976562 242.886719 151.203125 243.035156 150.445312 C 243.230469 149.300781 244.082031 148.742188 244.882812 149.148438 C 245.5625 149.539062 245.976562 150.636719 245.875 151.644531 C 245.777344 152.316406 245.460938 152.84375 245.046875 153.054688 C 245.050781 153.058594 245.050781 153.058594 245.050781 153.058594 C 244.695312 153.425781 244.382812 154.003906 244.203125 154.65625 C 244.101562 155.011719 244.042969 155.363281 244.03125 155.683594 C 243.988281 156.40625 244.214844 156.3125 244.285156 156.816406 C 244.332031 157.242188 244.171875 157.78125 243.828125 158.289062 C 243.34375 158.980469 242.5625 159.511719 241.886719 159.550781 C 240.417969 159.5 241.207031 158.300781 240.476562 157.484375 C 240.296875 157.277344 240.0625 157.097656 239.789062 156.957031 C 239.464844 156.796875 239.105469 156.695312 238.730469 156.660156 C 237.417969 156.523438 236.476562 157.207031 236.109375 158.398438 C 236.011719 158.699219 235.984375 159 236.019531 159.28125 C 236.039062 159.496094 236.289062 160.035156 236.289062 160.03125 C 236.75 160.402344 236.933594 160.886719 236.726562 161.324219 C 236.417969 161.898438 235.402344 162.160156 234.402344 161.980469 C 233.402344 161.742188 232.667969 161.089844 232.789062 160.453125 C 232.851562 160.164062 233.058594 159.917969 233.363281 159.746094 C 233.894531 159.425781 234.042969 159.632812 234.589844 159.070312 C 234.824219 158.820312 235 158.507812 235.101562 158.15625 C 235.683594 156.09375 233.855469 155.878906 234.3125 154.066406 C 234.648438 152.78125 235.984375 152.007812 237.285156 152.355469 C 237.289062 152.359375 237.289062 152.359375 237.289062 152.359375 C 237.511719 152.414062 237.726562 152.496094 237.933594 152.617188 C 239.617188 153.589844 238.371094 155.019531 240.335938 156.089844 C 240.921875 156.394531 241.578125 156.449219 242.175781 156.253906 C 242.171875 156.261719 242.171875 156.261719 242.171875 156.257812 Z M 233.066406 148.394531 C 234.039062 148.921875 234.90625 148.835938 235.660156 148.148438 C 236.402344 147.480469 236.097656 147.398438 236.589844 146.796875 C 236.839844 146.492188 237.207031 146.269531 237.796875 146.140625 C 240.453125 145.675781 241.84375 149.828125 239.121094 150.53125 C 238.398438 150.71875 237.871094 150.625 237.417969 150.363281 C 236.726562 149.96875 237.046875 149.90625 236.125 149.664062 C 235.089844 149.398438 234.304688 149.765625 233.679688 150.777344 C 233.4375 151.59375 232.800781 152.230469 232.019531 152.4375 C 230.851562 152.761719 229.71875 152.019531 229.457031 150.808594 C 229.308594 150.050781 229.535156 149.273438 230.003906 148.707031 C 230.738281 147.855469 231.0625 147.683594 231.230469 146.453125 C 231.296875 146.042969 231.269531 145.671875 231.144531 145.375 C 230.957031 144.910156 230.832031 145.023438 230.570312 144.765625 C 230.34375 144.546875 230.261719 144.242188 230.382812 143.875 C 230.632812 143.21875 231.546875 142.566406 232.464844 142.347656 C 233.445312 142.183594 234.191406 142.566406 234.109375 143.277344 C 234.078125 143.5625 233.941406 143.847656 233.714844 144.109375 C 233.203125 144.722656 232.957031 144.523438 232.492188 145.34375 C 232.324219 145.65625 232.210938 146.003906 232.179688 146.363281 C 232.101562 147.386719 232.402344 147.796875 233.066406 148.394531 Z M 228.964844 153.925781 C 229.964844 153.976562 230.890625 154.984375 230.96875 156.136719 C 231.074219 157.230469 230.347656 157.9375 229.417969 157.769531 C 228.574219 157.574219 227.804688 156.664062 227.628906 155.691406 C 227.5 154.664062 228.066406 153.851562 228.964844 153.925781 Z M 228.210938 146.089844 C 228.765625 145.925781 229.144531 146.351562 229.019531 147.074219 C 228.914062 147.832031 228.316406 148.542969 227.726562 148.636719 C 227.199219 148.734375 226.914062 148.242188 227.054688 147.554688 C 227.214844 146.90625 227.714844 146.265625 228.210938 146.089844 Z M 242.367188 144.75 C 242.878906 144.890625 243.390625 145.417969 243.527344 145.933594 C 243.664062 146.496094 243.339844 146.878906 242.792969 146.777344 C 242.207031 146.683594 241.636719 146.105469 241.542969 145.507812 C 241.445312 144.949219 241.816406 144.617188 242.367188 144.75 Z M 242.367188 144.75 " clip-rule="nonzero"/></clipPath><linearGradient x1="433.295131" gradientTransform="matrix(0.044272, 0, 0, -0.044272, 226.912729, 201.517405)" y1="1328.616798" x2="-1.627" gradientUnits="userSpaceOnUse" y2="901.61138" id="3dd05ef64b"><stop stop-opacity="1" stop-color="rgb(5.099487%, 93.728638%, 96.469116%)" offset="0"/><stop stop-opacity="1" stop-color="rgb(5.099487%, 93.728638%, 96.469116%)" offset="0.125"/><stop stop-opacity="1" stop-color="rgb(5.099487%, 93.728638%, 96.469116%)" offset="0.1875"/><stop stop-opacity="1" stop-color="rgb(5.099487%, 93.728638%, 96.469116%)" offset="0.21875"/><stop stop-opacity="1" stop-color="rgb(5.099487%, 93.728638%, 96.469116%)" offset="0.226562"/><stop stop-opacity="1" stop-color="rgb(5.718994%, 93.110657%, 96.476746%)" offset="0.230469"/><stop stop-opacity="1" stop-color="rgb(6.340027%, 92.492676%, 96.484375%)" offset="0.234375"/><stop stop-opacity="1" stop-color="rgb(6.977844%, 91.856384%, 96.492004%)" offset="0.238281"/><stop stop-opacity="1" stop-color="rgb(7.617188%, 91.221619%, 96.50116%)" offset="0.242187"/><stop stop-opacity="1" stop-color="rgb(8.255005%, 90.585327%, 96.508789%)" offset="0.246094"/><stop stop-opacity="1" stop-color="rgb(8.894348%, 89.949036%, 96.516418%)" offset="0.25"/><stop stop-opacity="1" stop-color="rgb(9.532166%, 89.312744%, 96.524048%)" offset="0.253906"/><stop stop-opacity="1" stop-color="rgb(10.171509%, 88.677979%, 96.533203%)" offset="0.257812"/><stop stop-opacity="1" stop-color="rgb(10.809326%, 88.041687%, 96.540833%)" offset="0.261719"/><stop stop-opacity="1" stop-color="rgb(11.447144%, 87.406921%, 96.548462%)" offset="0.265625"/><stop stop-opacity="1" stop-color="rgb(12.084961%, 86.77063%, 96.556091%)" offset="0.269531"/><stop stop-opacity="1" stop-color="rgb(12.724304%, 86.134338%, 96.565247%)" offset="0.273438"/><stop stop-opacity="1" stop-color="rgb(13.362122%, 85.498047%, 96.572876%)" offset="0.277344"/><stop stop-opacity="1" stop-color="rgb(14.001465%, 84.863281%, 96.582031%)" offset="0.28125"/><stop stop-opacity="1" stop-color="rgb(14.639282%, 84.22699%, 96.589661%)" offset="0.285156"/><stop stop-opacity="1" stop-color="rgb(15.278625%, 83.592224%, 96.59729%)" offset="0.289062"/><stop stop-opacity="1" stop-color="rgb(15.916443%, 82.955933%, 96.604919%)" offset="0.292969"/><stop stop-opacity="1" stop-color="rgb(16.55426%, 82.319641%, 96.614075%)" offset="0.296875"/><stop stop-opacity="1" stop-color="rgb(17.192078%, 81.68335%, 96.621704%)" offset="0.300781"/><stop stop-opacity="1" stop-color="rgb(17.831421%, 81.048584%, 96.629333%)" offset="0.304688"/><stop stop-opacity="1" stop-color="rgb(18.469238%, 80.412292%, 96.636963%)" offset="0.308594"/><stop stop-opacity="1" stop-color="rgb(19.108582%, 79.777527%, 96.646118%)" offset="0.3125"/><stop stop-opacity="1" stop-color="rgb(19.746399%, 79.141235%, 96.653748%)" offset="0.316406"/><stop stop-opacity="1" stop-color="rgb(20.385742%, 78.504944%, 96.661377%)" offset="0.320312"/><stop stop-opacity="1" stop-color="rgb(21.02356%, 77.868652%, 96.669006%)" offset="0.324219"/><stop stop-opacity="1" stop-color="rgb(21.661377%, 77.233887%, 96.678162%)" offset="0.328125"/><stop stop-opacity="1" stop-color="rgb(22.299194%, 76.597595%, 96.685791%)" offset="0.332031"/><stop stop-opacity="1" stop-color="rgb(22.938538%, 75.96283%, 96.69342%)" offset="0.335938"/><stop stop-opacity="1" stop-color="rgb(23.576355%, 75.326538%, 96.70105%)" offset="0.339844"/><stop stop-opacity="1" stop-color="rgb(24.215698%, 74.690247%, 96.710205%)" offset="0.34375"/><stop stop-opacity="1" stop-color="rgb(24.853516%, 74.053955%, 96.717834%)" offset="0.347656"/><stop stop-opacity="1" stop-color="rgb(25.491333%, 73.419189%, 96.725464%)" offset="0.351562"/><stop stop-opacity="1" stop-color="rgb(26.12915%, 72.782898%, 96.733093%)" offset="0.355469"/><stop stop-opacity="1" stop-color="rgb(26.768494%, 72.148132%, 96.742249%)" offset="0.359375"/><stop stop-opacity="1" stop-color="rgb(27.406311%, 71.511841%, 96.749878%)" offset="0.363281"/><stop stop-opacity="1" stop-color="rgb(28.045654%, 70.875549%, 96.757507%)" offset="0.367188"/><stop stop-opacity="1" stop-color="rgb(28.683472%, 70.239258%, 96.765137%)" offset="0.371094"/><stop stop-opacity="1" stop-color="rgb(29.322815%, 69.604492%, 96.774292%)" offset="0.375"/><stop stop-opacity="1" stop-color="rgb(29.960632%, 68.968201%, 96.781921%)" offset="0.378906"/><stop stop-opacity="1" stop-color="rgb(30.59845%, 68.333435%, 96.789551%)" offset="0.382812"/><stop stop-opacity="1" stop-color="rgb(31.236267%, 67.697144%, 96.79718%)" offset="0.386719"/><stop stop-opacity="1" stop-color="rgb(31.87561%, 67.060852%, 96.806335%)" offset="0.390625"/><stop stop-opacity="1" stop-color="rgb(32.513428%, 66.424561%, 96.813965%)" offset="0.394531"/><stop stop-opacity="1" stop-color="rgb(33.152771%, 65.789795%, 96.82312%)" offset="0.398437"/><stop stop-opacity="1" stop-color="rgb(33.790588%, 65.153503%, 96.83075%)" offset="0.402344"/><stop stop-opacity="1" stop-color="rgb(34.429932%, 64.518738%, 96.838379%)" offset="0.40625"/><stop stop-opacity="1" stop-color="rgb(35.067749%, 63.882446%, 96.846008%)" offset="0.410156"/><stop stop-opacity="1" stop-color="rgb(35.705566%, 63.246155%, 96.855164%)" offset="0.414062"/><stop stop-opacity="1" stop-color="rgb(36.343384%, 62.609863%, 96.862793%)" offset="0.417969"/><stop stop-opacity="1" stop-color="rgb(36.982727%, 61.975098%, 96.870422%)" offset="0.421875"/><stop stop-opacity="1" stop-color="rgb(37.620544%, 61.338806%, 96.878052%)" offset="0.425781"/><stop stop-opacity="1" stop-color="rgb(38.259888%, 60.702515%, 96.887207%)" offset="0.429688"/><stop stop-opacity="1" stop-color="rgb(38.897705%, 60.066223%, 96.894836%)" offset="0.433594"/><stop stop-opacity="1" stop-color="rgb(39.537048%, 59.431458%, 96.902466%)" offset="0.4375"/><stop stop-opacity="1" stop-color="rgb(40.174866%, 58.795166%, 96.910095%)" offset="0.441406"/><stop stop-opacity="1" stop-color="rgb(40.812683%, 58.1604%, 96.91925%)" offset="0.445312"/><stop stop-opacity="1" stop-color="rgb(41.4505%, 57.524109%, 96.92688%)" offset="0.449219"/><stop stop-opacity="1" stop-color="rgb(42.089844%, 56.887817%, 96.934509%)" offset="0.453125"/><stop stop-opacity="1" stop-color="rgb(42.727661%, 56.251526%, 96.942139%)" offset="0.457031"/><stop stop-opacity="1" stop-color="rgb(43.367004%, 55.61676%, 96.951294%)" offset="0.460938"/><stop stop-opacity="1" stop-color="rgb(44.004822%, 54.980469%, 96.958923%)" offset="0.464844"/><stop stop-opacity="1" stop-color="rgb(44.644165%, 54.345703%, 96.966553%)" offset="0.46875"/><stop stop-opacity="1" stop-color="rgb(45.281982%, 53.709412%, 96.974182%)" offset="0.472656"/><stop stop-opacity="1" stop-color="rgb(45.9198%, 53.07312%, 96.983337%)" offset="0.476562"/><stop stop-opacity="1" stop-color="rgb(46.557617%, 52.436829%, 96.990967%)" offset="0.480469"/><stop stop-opacity="1" stop-color="rgb(47.19696%, 51.802063%, 96.998596%)" offset="0.484375"/><stop stop-opacity="1" stop-color="rgb(47.834778%, 51.165771%, 97.006226%)" offset="0.488281"/><stop stop-opacity="1" stop-color="rgb(48.474121%, 50.531006%, 97.015381%)" offset="0.492188"/><stop stop-opacity="1" stop-color="rgb(49.111938%, 49.894714%, 97.02301%)" offset="0.496094"/><stop stop-opacity="1" stop-color="rgb(49.749756%, 49.258423%, 97.032166%)" offset="0.5"/><stop stop-opacity="1" stop-color="rgb(50.387573%, 48.622131%, 97.039795%)" offset="0.503906"/><stop stop-opacity="1" stop-color="rgb(51.026917%, 47.987366%, 97.047424%)" offset="0.507812"/><stop stop-opacity="1" stop-color="rgb(51.664734%, 47.351074%, 97.055054%)" offset="0.511719"/><stop stop-opacity="1" stop-color="rgb(52.304077%, 46.716309%, 97.064209%)" offset="0.515625"/><stop stop-opacity="1" stop-color="rgb(52.941895%, 46.080017%, 97.071838%)" offset="0.519531"/><stop stop-opacity="1" stop-color="rgb(53.581238%, 45.443726%, 97.079468%)" offset="0.523438"/><stop stop-opacity="1" stop-color="rgb(54.219055%, 44.807434%, 97.087097%)" offset="0.527344"/><stop stop-opacity="1" stop-color="rgb(54.856873%, 44.172668%, 97.096252%)" offset="0.53125"/><stop stop-opacity="1" stop-color="rgb(55.49469%, 43.536377%, 97.103882%)" offset="0.535156"/><stop stop-opacity="1" stop-color="rgb(56.134033%, 42.901611%, 97.111511%)" offset="0.539062"/><stop stop-opacity="1" stop-color="rgb(56.771851%, 42.26532%, 97.119141%)" offset="0.542969"/><stop stop-opacity="1" stop-color="rgb(57.411194%, 41.629028%, 97.128296%)" offset="0.546875"/><stop stop-opacity="1" stop-color="rgb(58.049011%, 40.992737%, 97.135925%)" offset="0.550781"/><stop stop-opacity="1" stop-color="rgb(58.688354%, 40.357971%, 97.143555%)" offset="0.554688"/><stop stop-opacity="1" stop-color="rgb(59.326172%, 39.72168%, 97.151184%)" offset="0.558594"/><stop stop-opacity="1" stop-color="rgb(59.963989%, 39.086914%, 97.160339%)" offset="0.5625"/><stop stop-opacity="1" stop-color="rgb(60.601807%, 38.450623%, 97.167969%)" offset="0.566406"/><stop stop-opacity="1" stop-color="rgb(61.24115%, 37.814331%, 97.175598%)" offset="0.570312"/><stop stop-opacity="1" stop-color="rgb(61.878967%, 37.17804%, 97.183228%)" offset="0.574219"/><stop stop-opacity="1" stop-color="rgb(62.518311%, 36.543274%, 97.192383%)" offset="0.578125"/><stop stop-opacity="1" stop-color="rgb(63.156128%, 35.906982%, 97.200012%)" offset="0.582031"/><stop stop-opacity="1" stop-color="rgb(63.795471%, 35.272217%, 97.207642%)" offset="0.585938"/><stop stop-opacity="1" stop-color="rgb(64.433289%, 34.635925%, 97.215271%)" offset="0.589844"/><stop stop-opacity="1" stop-color="rgb(65.071106%, 33.999634%, 97.224426%)" offset="0.59375"/><stop stop-opacity="1" stop-color="rgb(65.708923%, 33.363342%, 97.232056%)" offset="0.597656"/><stop stop-opacity="1" stop-color="rgb(66.348267%, 32.728577%, 97.239685%)" offset="0.601563"/><stop stop-opacity="1" stop-color="rgb(66.986084%, 32.092285%, 97.247314%)" offset="0.605469"/><stop stop-opacity="1" stop-color="rgb(67.625427%, 31.45752%, 97.25647%)" offset="0.609375"/><stop stop-opacity="1" stop-color="rgb(68.263245%, 30.821228%, 97.264099%)" offset="0.613281"/><stop stop-opacity="1" stop-color="rgb(68.902588%, 30.184937%, 97.273254%)" offset="0.617187"/><stop stop-opacity="1" stop-color="rgb(69.540405%, 29.548645%, 97.280884%)" offset="0.621094"/><stop stop-opacity="1" stop-color="rgb(70.178223%, 28.913879%, 97.288513%)" offset="0.625"/><stop stop-opacity="1" stop-color="rgb(70.81604%, 28.277588%, 97.296143%)" offset="0.628906"/><stop stop-opacity="1" stop-color="rgb(71.455383%, 27.642822%, 97.305298%)" offset="0.632812"/><stop stop-opacity="1" stop-color="rgb(72.093201%, 27.006531%, 97.312927%)" offset="0.636719"/><stop stop-opacity="1" stop-color="rgb(72.732544%, 26.370239%, 97.320557%)" offset="0.640625"/><stop stop-opacity="1" stop-color="rgb(73.370361%, 25.733948%, 97.328186%)" offset="0.644531"/><stop stop-opacity="1" stop-color="rgb(74.009705%, 25.099182%, 97.337341%)" offset="0.648437"/><stop stop-opacity="1" stop-color="rgb(74.647522%, 24.462891%, 97.344971%)" offset="0.652344"/><stop stop-opacity="1" stop-color="rgb(75.285339%, 23.826599%, 97.3526%)" offset="0.65625"/><stop stop-opacity="1" stop-color="rgb(75.923157%, 23.190308%, 97.360229%)" offset="0.660156"/><stop stop-opacity="1" stop-color="rgb(76.5625%, 22.555542%, 97.369385%)" offset="0.664062"/><stop stop-opacity="1" stop-color="rgb(77.200317%, 21.91925%, 97.377014%)" offset="0.667969"/><stop stop-opacity="1" stop-color="rgb(77.839661%, 21.284485%, 97.384644%)" offset="0.671875"/><stop stop-opacity="1" stop-color="rgb(78.477478%, 20.648193%, 97.392273%)" offset="0.675781"/><stop stop-opacity="1" stop-color="rgb(79.115295%, 20.011902%, 97.401428%)" offset="0.679688"/><stop stop-opacity="1" stop-color="rgb(79.753113%, 19.37561%, 97.409058%)" offset="0.683594"/><stop stop-opacity="1" stop-color="rgb(80.392456%, 18.740845%, 97.416687%)" offset="0.6875"/><stop stop-opacity="1" stop-color="rgb(81.030273%, 18.104553%, 97.424316%)" offset="0.691406"/><stop stop-opacity="1" stop-color="rgb(81.669617%, 17.469788%, 97.433472%)" offset="0.695312"/><stop stop-opacity="1" stop-color="rgb(82.307434%, 16.833496%, 97.441101%)" offset="0.699219"/><stop stop-opacity="1" stop-color="rgb(82.946777%, 16.197205%, 97.44873%)" offset="0.703125"/><stop stop-opacity="1" stop-color="rgb(83.584595%, 15.560913%, 97.45636%)" offset="0.707031"/><stop stop-opacity="1" stop-color="rgb(84.222412%, 14.926147%, 97.465515%)" offset="0.710937"/><stop stop-opacity="1" stop-color="rgb(84.860229%, 14.289856%, 97.473145%)" offset="0.714844"/><stop stop-opacity="1" stop-color="rgb(85.499573%, 13.65509%, 97.480774%)" offset="0.71875"/><stop stop-opacity="1" stop-color="rgb(86.13739%, 13.018799%, 97.488403%)" offset="0.722656"/><stop stop-opacity="1" stop-color="rgb(86.776733%, 12.382507%, 97.497559%)" offset="0.726562"/><stop stop-opacity="1" stop-color="rgb(87.414551%, 11.746216%, 97.505188%)" offset="0.730469"/><stop stop-opacity="1" stop-color="rgb(88.053894%, 11.11145%, 97.514343%)" offset="0.734375"/><stop stop-opacity="1" stop-color="rgb(88.691711%, 10.475159%, 97.521973%)" offset="0.738281"/><stop stop-opacity="1" stop-color="rgb(89.329529%, 9.840393%, 97.529602%)" offset="0.742188"/><stop stop-opacity="1" stop-color="rgb(89.967346%, 9.204102%, 97.537231%)" offset="0.746094"/><stop stop-opacity="1" stop-color="rgb(90.606689%, 8.56781%, 97.546387%)" offset="0.75"/><stop stop-opacity="1" stop-color="rgb(91.244507%, 7.931519%, 97.554016%)" offset="0.753906"/><stop stop-opacity="1" stop-color="rgb(91.88385%, 7.296753%, 97.561646%)" offset="0.757812"/><stop stop-opacity="1" stop-color="rgb(92.521667%, 6.660461%, 97.569275%)" offset="0.761719"/><stop stop-opacity="1" stop-color="rgb(93.161011%, 6.025696%, 97.57843%)" offset="0.765625"/><stop stop-opacity="1" stop-color="rgb(93.798828%, 5.389404%, 97.58606%)" offset="0.769531"/><stop stop-opacity="1" stop-color="rgb(94.436646%, 4.753113%, 97.593689%)" offset="0.773437"/><stop stop-opacity="1" stop-color="rgb(95.074463%, 4.116821%, 97.601318%)" offset="0.777344"/><stop stop-opacity="1" stop-color="rgb(95.713806%, 3.482056%, 97.610474%)" offset="0.78125"/><stop stop-opacity="1" stop-color="rgb(96.351624%, 2.845764%, 97.618103%)" offset="0.785156"/><stop stop-opacity="1" stop-color="rgb(96.990967%, 2.210999%, 97.625732%)" offset="0.789062"/><stop stop-opacity="1" stop-color="rgb(97.628784%, 1.574707%, 97.633362%)" offset="0.792969"/><stop stop-opacity="1" stop-color="rgb(98.268127%, 0.938416%, 97.642517%)" offset="0.796875"/><stop stop-opacity="1" stop-color="rgb(98.542786%, 0.663757%, 97.645569%)" offset="0.800781"/><stop stop-opacity="1" stop-color="rgb(98.81897%, 0.389099%, 97.648621%)" offset="0.804687"/><stop stop-opacity="1" stop-color="rgb(98.81897%, 0.389099%, 97.648621%)" offset="0.8125"/><stop stop-opacity="1" stop-color="rgb(98.81897%, 0.389099%, 97.648621%)" offset="0.875"/><stop stop-opacity="1" stop-color="rgb(98.81897%, 0.389099%, 97.648621%)" offset="1"/></linearGradient></defs><g transform="matrix(1, 0, 0, 1, 85, 132)"><g clip-path="url(#0383706b26)"><g fill="#2c0a71" fill-opacity="1"><g transform="translate(1.09309, 70.786082)"><g><path d="M 1.953125 -38.046875 L 18.640625 -38.046875 L 25.4375 -17.234375 L 32.171875 -38.046875 L 48.75 -38.046875 L 48.75 0 L 37.21875 0 L 37.28125 -25.4375 L 28.578125 0 L 22.125 0 L 13.53125 -25.265625 L 13.53125 0 L 1.953125 0 Z M 1.953125 -38.046875 "/></g></g></g><g fill="#2c0a71" fill-opacity="1"><g transform="translate(51.740759, 70.786082)"><g><path d="M 14.515625 -38.046875 L 31.515625 -38.046875 L 45.484375 0 L 33.15625 0 L 30.65625 -6.953125 L 15.328125 -6.953125 L 12.828125 0 L 0.546875 0 Z M 27.390625 -15.921875 L 22.984375 -28.203125 L 18.578125 -15.921875 Z M 27.390625 -15.921875 "/></g></g></g><g fill="#2c0a71" fill-opacity="1"><g transform="translate(97.606246, 70.786082)"><g><path d="M 0.546875 -38.046875 L 12.828125 -38.046875 L 22.984375 -9.84375 L 33.15625 -38.046875 L 45.484375 -38.046875 L 31.515625 0 L 14.515625 0 Z M 0.546875 -38.046875 "/></g></g></g><g fill="#2c0a71" fill-opacity="1"><g transform="translate(143.471732, 70.786082)"><g><path d="M 1.953125 -38.046875 L 13.53125 -38.046875 L 13.53125 0 L 1.953125 0 Z M 1.953125 -38.046875 "/></g></g></g><g fill="#2c0a71" fill-opacity="1"><g transform="translate(158.905145, 70.786082)"><g><path d="M 1.734375 -38.046875 L 13.3125 -38.046875 L 13.3125 -23.53125 L 23.15625 -23.53125 L 31.46875 -38.046875 L 44.671875 -38.046875 L 33.6875 -19.015625 L 44.671875 0 L 31.46875 0 L 23.15625 -14.515625 L 13.3125 -14.515625 L 13.3125 0 L 1.734375 0 Z M 1.734375 -38.046875 "/></g></g></g></g></g><g clip-path="url(#19c71e39f9)"><g clip-path="url(#e2e0d6447c)"><path fill="url(#3dd05ef64b)" d="M 227 161.765625 L 227 142.269531 L 245.675781 142.269531 L 245.675781 161.765625 Z M 227 161.765625 " fill-rule="nonzero"/></g></g></svg>